# xmcd
#
# Track frame offsets:
#  150
#  16726
#  40524
#  57253
#  72400
#  95051
#  112235
#  129574
#  149733
#  167601
#  187258
#
# Disc length: 2796 seconds
#
# Revision: 0
# Processed by: cddbd v1.5.1PL0 Copyright (c) Steve Scherf et al.
# Submitted via: Collectorz.com_Music_Collector 6.9
#
DISCID=a40aea0b
DTITLE=Raitt, Bonnie - Souls Alike
DYEAR=2005
DGENRE=Country
TTITLE0=I Will Not Be Broken
TTITLE1=God Was In The Water
TTITLE2=Love On One Condition
TTITLE3=So Close
TTITLE4=Trinkets
TTITLE5=Crooked Crown
TTITLE6=Unnecessarily Mercenary
TTITLE7=I Dont Want Anything To Change
TTITLE8=Deep Water
TTITLE9=Two Lights In The Nighttime
TTITLE10=The Bed I Made
EXTD=
EXTT0=
EXTT1=
EXTT2=
EXTT3=
EXTT4=
EXTT5=
EXTT6=
EXTT7=
EXTT8=
EXTT9=
EXTT10=
PLAYORDER=
